<svg width="30" height="30" viewBox="0 0 30 30" fill="none" xmlns="http://www.w3.org/2000/svg">
<path d="M24.6299 14.9999L14.0149 4.09113C13.9276 4.00322 13.8585 3.89885 13.8117 3.78406C13.7649 3.66927 13.7413 3.54634 13.7423 3.42239C13.7434 3.29843 13.769 3.17591 13.8177 3.06191C13.8664 2.94792 13.9372 2.84471 14.026 2.75826C14.1149 2.67182 14.22 2.60385 14.3353 2.55829C14.4505 2.51273 14.5737 2.49049 14.6977 2.49285C14.8216 2.49521 14.9438 2.52212 15.0573 2.57203C15.1708 2.62195 15.2732 2.69387 15.3587 2.78363L26.6087 14.3461C26.779 14.5212 26.8742 14.7557 26.8742 14.9999C26.8742 15.2441 26.779 15.4786 26.6087 15.6536L15.3587 27.2161C15.2732 27.3059 15.1708 27.3778 15.0573 27.4277C14.9438 27.4776 14.8216 27.5046 14.6977 27.5069C14.5737 27.5093 14.4505 27.487 14.3353 27.4415C14.22 27.3959 14.1149 27.328 14.026 27.2415C13.9372 27.1551 13.8664 27.0519 13.8177 26.9379C13.769 26.8239 13.7434 26.7013 13.7423 26.5774C13.7413 26.4534 13.7649 26.3305 13.8117 26.2157C13.8585 26.1009 13.9276 25.9965 14.0149 25.9086L24.6299 14.9999Z" fill="white"/>
</svg>
