<svg width="55" height="41" viewBox="0 0 55 41" fill="none" xmlns="http://www.w3.org/2000/svg">
<path d="M39.9349 14.6225C38.5563 14.6225 37.288 14.8017 36.13 15.1602C34.972 15.5186 33.9656 16.0563 33.1109 16.7731C32.2561 17.49 31.5944 18.3999 31.1257 19.5028C30.657 20.5781 30.4088 21.874 30.3812 23.3904V34.2676H26.5349V5.31696H30.3812V14.9534C31.5393 13.7402 32.9454 12.8165 34.5998 12.1824C36.2541 11.5482 38.0876 11.2312 40.1004 11.2312C41.672 11.2312 43.1057 11.4379 44.4016 11.8515C45.6975 12.2651 46.8004 12.8855 47.7103 13.7126C48.6477 14.5122 49.3646 15.5324 49.8609 16.7731C50.3572 17.9863 50.6053 19.42 50.6053 21.0744V34.2676H46.759V22.3978C46.759 21.3501 46.6625 20.3575 46.4695 19.42C46.2765 18.4826 45.9181 17.6554 45.3942 16.9386C44.8703 16.2217 44.1673 15.6565 43.2849 15.2429C42.4302 14.8293 41.3135 14.6225 39.9349 14.6225Z" fill="#FF6B00"/>
<path d="M26.852 31.3725C25.694 32.6133 24.2465 33.5783 22.5094 34.2676C20.7724 34.9845 18.8148 35.3291 16.6366 35.3015C14.6514 35.3015 12.8592 35.0672 11.26 34.5984C9.68844 34.1297 8.33741 33.4128 7.20696 32.4478C6.07651 31.4828 5.20799 30.2696 4.60141 28.8083C3.99482 27.3194 3.67774 25.5686 3.65017 23.5558C3.65017 21.4879 3.93968 19.6958 4.51869 18.1793C5.12527 16.6628 5.99379 15.4083 7.12424 14.4157C8.28227 13.4231 9.67466 12.6925 11.3014 12.2237C12.9557 11.7275 14.8306 11.4793 16.9261 11.4793C21.1446 11.4793 24.3705 12.5546 26.6039 14.7052V5.31696H30.4502V34.2676H26.6039L26.852 31.3725ZM7.57918 23.4318C7.63433 26.4371 8.4477 28.574 10.0193 29.8423C11.5909 31.083 13.8656 31.7034 16.8434 31.7034C18.3323 31.7034 19.6695 31.5517 20.8551 31.2484C22.0683 30.9451 23.0884 30.4626 23.9156 29.8009C24.7428 29.1392 25.3769 28.2845 25.8181 27.2367C26.2868 26.189 26.5349 24.9207 26.5625 23.4318C26.5074 20.3989 25.6802 18.2482 24.081 16.9799C22.5094 15.684 20.1245 15.0223 16.9261 14.9947C13.7277 14.9947 11.3841 15.6427 9.89523 16.9386C8.40634 18.2344 7.63433 20.3989 7.57918 23.4318Z" fill="#FF6B00"/>
<circle cx="17" cy="23" r="1" fill="#FF6B00"/>
</svg>
